<mxfile host="Electron" agent="Mozilla/5.0 (Windows NT 10.0; Win64; x64) AppleWebKit/537.36 (KHTML, like Gecko) draw.io/26.0.9 Chrome/128.0.6613.186 Electron/32.2.5 Safari/537.36" version="26.0.9">
  <diagram name="Page-1" id="i1AMQZblgapeprNLBYhG">
    <mxGraphModel dx="869" dy="507" grid="1" gridSize="10" guides="1" tooltips="1" connect="1" arrows="1" fold="1" page="1" pageScale="1" pageWidth="850" pageHeight="1100" math="0" shadow="0">
      <root>
        <mxCell id="0" />
        <mxCell id="1" parent="0" />
        <mxCell id="h6tM5bJv-wO1-XlPeuh8-1" value="" style="rounded=0;whiteSpace=wrap;html=1;fontStyle=0" parent="1" vertex="1">
          <mxGeometry x="40" y="208" width="160" height="82" as="geometry" />
        </mxCell>
        <mxCell id="h6tM5bJv-wO1-XlPeuh8-2" value="DRIVE_RESET" style="text;html=1;align=left;verticalAlign=bottom;whiteSpace=wrap;rounded=0;fontFamily=Lucida Console;fontStyle=0" parent="1" vertex="1">
          <mxGeometry x="40" y="190" width="160" height="20" as="geometry" />
        </mxCell>
        <mxCell id="h6tM5bJv-wO1-XlPeuh8-3" value="" style="rounded=0;whiteSpace=wrap;html=1;fontStyle=0" parent="1" vertex="1">
          <mxGeometry x="40" y="328" width="160" height="82" as="geometry" />
        </mxCell>
        <mxCell id="h6tM5bJv-wO1-XlPeuh8-4" value="DRIVE_CLOCK" style="text;html=1;align=left;verticalAlign=bottom;whiteSpace=wrap;rounded=0;fontFamily=Lucida Console;fontStyle=0" parent="1" vertex="1">
          <mxGeometry x="40" y="310" width="160" height="20" as="geometry" />
        </mxCell>
        <mxCell id="h6tM5bJv-wO1-XlPeuh8-5" value="" style="rounded=0;whiteSpace=wrap;html=1;fontStyle=0" parent="1" vertex="1">
          <mxGeometry x="40" y="88" width="160" height="82" as="geometry" />
        </mxCell>
        <mxCell id="h6tM5bJv-wO1-XlPeuh8-6" value="DRIVE_INPUTS" style="text;html=1;align=left;verticalAlign=bottom;whiteSpace=wrap;rounded=0;fontFamily=Lucida Console;fontStyle=0" parent="1" vertex="1">
          <mxGeometry x="40" y="70" width="160" height="20" as="geometry" />
        </mxCell>
        <mxCell id="h6tM5bJv-wO1-XlPeuh8-7" value="" style="rounded=0;whiteSpace=wrap;html=1;fontStyle=0" parent="1" vertex="1">
          <mxGeometry x="320" y="58" width="210" height="200" as="geometry" />
        </mxCell>
        <mxCell id="h6tM5bJv-wO1-XlPeuh8-8" value="UUT" style="text;html=1;align=left;verticalAlign=bottom;whiteSpace=wrap;rounded=0;fontFamily=Lucida Console;fontStyle=0" parent="1" vertex="1">
          <mxGeometry x="320" y="40" width="210" height="20" as="geometry" />
        </mxCell>
        <mxCell id="h6tM5bJv-wO1-XlPeuh8-9" value="Counter" style="text;html=1;align=center;verticalAlign=bottom;whiteSpace=wrap;rounded=0;fontFamily=Lucida Console;fontStyle=0" parent="1" vertex="1">
          <mxGeometry x="320" y="238" width="210" height="20" as="geometry" />
        </mxCell>
        <mxCell id="h6tM5bJv-wO1-XlPeuh8-10" value="nextEn" style="text;html=1;align=left;verticalAlign=bottom;whiteSpace=wrap;rounded=0;fontFamily=Lucida Console;fontStyle=0" parent="1" vertex="1">
          <mxGeometry x="330" y="120" width="50" height="20" as="geometry" />
        </mxCell>
        <mxCell id="h6tM5bJv-wO1-XlPeuh8-11" value="clock" style="text;html=1;align=left;verticalAlign=bottom;whiteSpace=wrap;rounded=0;fontFamily=Lucida Console;fontStyle=0" parent="1" vertex="1">
          <mxGeometry x="330" y="210" width="50" height="20" as="geometry" />
        </mxCell>
        <mxCell id="h6tM5bJv-wO1-XlPeuh8-12" value="reset" style="text;html=1;align=left;verticalAlign=bottom;whiteSpace=wrap;rounded=0;fontFamily=Lucida Console;fontStyle=0" parent="1" vertex="1">
          <mxGeometry x="330" y="190" width="50" height="20" as="geometry" />
        </mxCell>
        <mxCell id="h6tM5bJv-wO1-XlPeuh8-13" value="lastMode" style="text;html=1;align=right;verticalAlign=bottom;whiteSpace=wrap;rounded=0;fontFamily=Lucida Console;fontStyle=0" parent="1" vertex="1">
          <mxGeometry x="430" y="180" width="90" height="20" as="geometry" />
        </mxCell>
        <mxCell id="h6tM5bJv-wO1-XlPeuh8-14" value="term" style="text;html=1;align=right;verticalAlign=bottom;whiteSpace=wrap;rounded=0;fontFamily=Lucida Console;fontStyle=0" parent="1" vertex="1">
          <mxGeometry x="440" y="110" width="80" height="20" as="geometry" />
        </mxCell>
        <mxCell id="h6tM5bJv-wO1-XlPeuh8-16" style="edgeStyle=orthogonalEdgeStyle;rounded=0;orthogonalLoop=1;jettySize=auto;html=1;exitX=1;exitY=0.5;exitDx=0;exitDy=0;entryX=-0.005;entryY=0.355;entryDx=0;entryDy=0;entryPerimeter=0;endArrow=none;endFill=0;fontStyle=0" parent="1" source="h6tM5bJv-wO1-XlPeuh8-5" target="h6tM5bJv-wO1-XlPeuh8-7" edge="1">
          <mxGeometry relative="1" as="geometry" />
        </mxCell>
        <mxCell id="h6tM5bJv-wO1-XlPeuh8-17" style="edgeStyle=orthogonalEdgeStyle;rounded=0;orthogonalLoop=1;jettySize=auto;html=1;exitX=1;exitY=0.5;exitDx=0;exitDy=0;entryX=0;entryY=0.715;entryDx=0;entryDy=0;entryPerimeter=0;endArrow=none;endFill=0;fontStyle=0" parent="1" source="h6tM5bJv-wO1-XlPeuh8-1" target="h6tM5bJv-wO1-XlPeuh8-7" edge="1">
          <mxGeometry relative="1" as="geometry">
            <Array as="points">
              <mxPoint x="280" y="249" />
              <mxPoint x="280" y="201" />
            </Array>
          </mxGeometry>
        </mxCell>
        <mxCell id="h6tM5bJv-wO1-XlPeuh8-18" style="edgeStyle=orthogonalEdgeStyle;rounded=0;orthogonalLoop=1;jettySize=auto;html=1;exitX=1;exitY=0.5;exitDx=0;exitDy=0;entryX=0;entryY=0.805;entryDx=0;entryDy=0;entryPerimeter=0;endArrow=none;endFill=0;fontStyle=0" parent="1" source="h6tM5bJv-wO1-XlPeuh8-3" target="h6tM5bJv-wO1-XlPeuh8-7" edge="1">
          <mxGeometry relative="1" as="geometry">
            <Array as="points">
              <mxPoint x="300" y="369" />
              <mxPoint x="300" y="220" />
            </Array>
          </mxGeometry>
        </mxCell>
        <mxCell id="h6tM5bJv-wO1-XlPeuh8-22" value="nextEn" style="text;html=1;align=left;verticalAlign=bottom;whiteSpace=wrap;rounded=0;fontFamily=Lucida Console;fontStyle=0" parent="1" vertex="1">
          <mxGeometry x="210" y="110" width="70" height="20" as="geometry" />
        </mxCell>
        <mxCell id="h6tM5bJv-wO1-XlPeuh8-23" value="reset" style="text;html=1;align=left;verticalAlign=bottom;whiteSpace=wrap;rounded=0;fontFamily=Lucida Console;fontStyle=0" parent="1" vertex="1">
          <mxGeometry x="210" y="230" width="70" height="20" as="geometry" />
        </mxCell>
        <mxCell id="h6tM5bJv-wO1-XlPeuh8-24" value="clock" style="text;html=1;align=left;verticalAlign=bottom;whiteSpace=wrap;rounded=0;fontFamily=Lucida Console;fontStyle=0" parent="1" vertex="1">
          <mxGeometry x="210" y="350" width="70" height="20" as="geometry" />
        </mxCell>
        <mxCell id="h6tM5bJv-wO1-XlPeuh8-25" value="" style="endArrow=none;html=1;rounded=0;strokeWidth=3;entryX=0;entryY=0.5;entryDx=0;entryDy=0;entryPerimeter=0;fontStyle=0" parent="1" edge="1">
          <mxGeometry width="50" height="50" relative="1" as="geometry">
            <mxPoint x="530" y="119.82000000000005" as="sourcePoint" />
            <mxPoint x="660" y="120" as="targetPoint" />
            <Array as="points">
              <mxPoint x="540" y="119.82000000000005" />
            </Array>
          </mxGeometry>
        </mxCell>
        <mxCell id="h6tM5bJv-wO1-XlPeuh8-27" value="4" style="text;html=1;align=center;verticalAlign=bottom;whiteSpace=wrap;rounded=0;fontFamily=Lucida Console;fontStyle=0" parent="1" vertex="1">
          <mxGeometry x="550" y="135" width="61" height="20" as="geometry" />
        </mxCell>
        <mxCell id="h6tM5bJv-wO1-XlPeuh8-32" value="term" style="text;html=1;align=left;verticalAlign=bottom;whiteSpace=wrap;rounded=0;fontFamily=Lucida Console;fontStyle=0" parent="1" vertex="1">
          <mxGeometry x="562" y="88" width="70" height="20" as="geometry" />
        </mxCell>
        <mxCell id="mbF0MXPYYiFs6faAnwzY-6" value="" style="endArrow=none;html=1;rounded=0;strokeWidth=1;fontStyle=0" parent="1" edge="1">
          <mxGeometry width="50" height="50" relative="1" as="geometry">
            <mxPoint x="576" y="130" as="sourcePoint" />
            <mxPoint x="585" y="108" as="targetPoint" />
          </mxGeometry>
        </mxCell>
        <mxCell id="2FDAHl5DUjbFJnvVTUBh-1" value="lastMode" style="text;html=1;align=left;verticalAlign=bottom;whiteSpace=wrap;rounded=0;fontFamily=Lucida Console;spacingRight=0;spacingLeft=12;" vertex="1" parent="1">
          <mxGeometry x="530" y="169.38999999999993" width="120" height="20" as="geometry" />
        </mxCell>
        <mxCell id="2FDAHl5DUjbFJnvVTUBh-2" value="" style="endArrow=none;html=1;rounded=0;" edge="1" parent="1">
          <mxGeometry width="50" height="50" relative="1" as="geometry">
            <mxPoint x="530" y="189.38999999999993" as="sourcePoint" />
            <mxPoint x="650" y="189.38999999999993" as="targetPoint" />
          </mxGeometry>
        </mxCell>
      </root>
    </mxGraphModel>
  </diagram>
</mxfile>
